<mxfile host="app.diagrams.net" modified="2021-07-03T11:56:04.598Z" agent="5.0 (Windows NT 10.0; Win64; x64) AppleWebKit/537.36 (KHTML, like Gecko) Chrome/87.0.4280.66 Safari/537.36" etag="AsWBJCyNPUBtfX21oWIg" version="14.8.3" type="github">
  <diagram id="prtHgNgQTEPvFCAcTncT" name="Page-1">
    <mxGraphModel dx="1038" dy="580" grid="0" gridSize="10" guides="1" tooltips="1" connect="1" arrows="1" fold="1" page="1" pageScale="1" pageWidth="827" pageHeight="1169" math="0" shadow="0">
      <root>
        <mxCell id="0" />
        <mxCell id="1" parent="0" />
        <mxCell id="Ao9K7SxMPwXgnXUrPpS7-1" value="" style="swimlane;startSize=0;dashed=1;" vertex="1" parent="1">
          <mxGeometry x="115" y="168" width="313" height="276" as="geometry" />
        </mxCell>
        <mxCell id="Ao9K7SxMPwXgnXUrPpS7-2" value="&lt;font style=&quot;font-size: 18px&quot;&gt;Linux&lt;/font&gt;" style="rounded=1;whiteSpace=wrap;html=1;" vertex="1" parent="Ao9K7SxMPwXgnXUrPpS7-1">
          <mxGeometry x="53" y="193" width="215" height="48" as="geometry" />
        </mxCell>
        <mxCell id="Ao9K7SxMPwXgnXUrPpS7-3" value="&lt;font style=&quot;font-size: 18px&quot;&gt;Javacall&lt;/font&gt;" style="rounded=1;whiteSpace=wrap;html=1;" vertex="1" parent="Ao9K7SxMPwXgnXUrPpS7-1">
          <mxGeometry x="51" y="119" width="215" height="50" as="geometry" />
        </mxCell>
        <mxCell id="Ao9K7SxMPwXgnXUrPpS7-188" value="&lt;span style=&quot;font-size: 18px&quot;&gt;CLDC&lt;/span&gt;" style="shape=partialRectangle;whiteSpace=wrap;html=1;bottom=0;right=0;fillColor=none;rounded=0;strokeWidth=1;" vertex="1" parent="1">
          <mxGeometry x="165" y="188" width="214" height="43" as="geometry" />
        </mxCell>
        <mxCell id="Ao9K7SxMPwXgnXUrPpS7-191" value="" style="shape=partialRectangle;whiteSpace=wrap;html=1;bottom=0;right=0;fillColor=none;rounded=0;strokeWidth=1;rotation=-180;" vertex="1" parent="1">
          <mxGeometry x="277" y="188" width="101" height="76" as="geometry" />
        </mxCell>
        <mxCell id="Ao9K7SxMPwXgnXUrPpS7-192" value="" style="shape=partialRectangle;whiteSpace=wrap;html=1;bottom=0;right=0;fillColor=none;rounded=0;strokeWidth=1;rotation=90;" vertex="1" parent="1">
          <mxGeometry x="204.41" y="192.59" width="31.68" height="112.23" as="geometry" />
        </mxCell>
        <mxCell id="Ao9K7SxMPwXgnXUrPpS7-197" value="PCSL" style="rounded=0;whiteSpace=wrap;html=1;strokeWidth=1;gradientColor=none;" vertex="1" parent="1">
          <mxGeometry x="165" y="237" width="105" height="29" as="geometry" />
        </mxCell>
        <mxCell id="Ao9K7SxMPwXgnXUrPpS7-200" value="" style="shape=flexArrow;endArrow=classic;html=1;" edge="1" parent="1">
          <mxGeometry width="50" height="50" relative="1" as="geometry">
            <mxPoint x="462" y="408.5" as="sourcePoint" />
            <mxPoint x="462" y="203" as="targetPoint" />
          </mxGeometry>
        </mxCell>
        <mxCell id="Ao9K7SxMPwXgnXUrPpS7-201" value="&lt;font style=&quot;font-size: 18px&quot;&gt;Bottom&lt;/font&gt;" style="rounded=0;whiteSpace=wrap;html=1;strokeWidth=0;opacity=0;" vertex="1" parent="1">
          <mxGeometry x="482" y="370" width="83" height="30" as="geometry" />
        </mxCell>
        <mxCell id="Ao9K7SxMPwXgnXUrPpS7-202" value="&lt;font style=&quot;font-size: 18px&quot;&gt;Middleware&lt;/font&gt;" style="rounded=0;whiteSpace=wrap;html=1;strokeWidth=0;opacity=0;" vertex="1" parent="1">
          <mxGeometry x="482" y="291" width="83" height="30" as="geometry" />
        </mxCell>
        <mxCell id="Ao9K7SxMPwXgnXUrPpS7-203" value="&lt;span style=&quot;font-size: 18px&quot;&gt;Upper&lt;/span&gt;" style="rounded=0;whiteSpace=wrap;html=1;strokeWidth=0;opacity=0;" vertex="1" parent="1">
          <mxGeometry x="485" y="207.5" width="83" height="52.5" as="geometry" />
        </mxCell>
      </root>
    </mxGraphModel>
  </diagram>
</mxfile>
